<?xml version="1.0" encoding="UTF-8" standalone="no"?>
<svg
   width="512"
   height="512"
   version="1.1"
   id="svg1"
   xml:space="preserve"
   xmlns="http://www.w3.org/2000/svg"
   xmlns:svg="http://www.w3.org/2000/svg"><defs
     id="defs1"><rect
       x="319.58816"
       y="467.85071"
       width="266.87259"
       height="314.97555"
       id="rect3" /><rect
       x="92.911197"
       y="102.13642"
       width="349.89961"
       height="266.87259"
       id="rect2" /><path
       id="a"
       d="M10.253 23.335h84.531V70.19H10.253z" /></defs><circle
     cx="256"
     cy="256"
     r="256"
     data-name="Ellipse 8"
     style="display:inline;fill:#dd0031;stroke-width:5.0355"
     id="circle1" /><path
     id="text3"
     style="font-size:250.077px;fill:#ffffff;stroke-width:0.542747"
     d="M 131.11816,99.752014 V 118.75201 H 64.618166 V 137.6563 H 170.7334 c -6.4125,18.33498 -16.43525,35.71994 -30.11524,50.91992 -8.83498,-9.83248 -16.15031,-20.51923 -21.94531,-31.82421 H 99.672854 c 6.934986,15.48498 16.435556,30.11532 28.310546,43.32031 l -48.308593,47.73633 13.443357,13.44336 47.499996,-47.5 29.54492,29.54492 7.21875,-19.33203 -24.1289,-23.84571 0.28515,-0.28515 c 16.52998,-18.42997 28.30916,-39.61518 35.24414,-62.03516 h 27.83594 v -19.04687 h -66.5 V 99.752014 Z m 80.75,75.999996 -42.75,114 h 19 l 10.6875,-28.5 h 45.125 l 10.6875,28.5 h 19 l -42.75,-114 z m 9.5,25.3164 15.4375,41.1836 h -30.875 z m 158.97656,64.66992 0.73243,43.83594 -44.20313,-26.00781 -7.9375,13.43164 46.52344,25.27539 -46.52344,25.27734 7.9375,13.43165 44.08008,-26.13086 -0.60938,43.95898 h 15.75196 l -0.73438,-43.95898 44.20313,26.00976 7.8164,-13.43359 -46.40234,-25.27539 46.40234,-25.03321 -7.8164,-13.43164 -44.32422,25.88672 0.85547,-43.83594 z M 248.46777,420.93755 v 34.80078 h 29.1836 v -34.80078 z" /></svg>
